<mxfile host="app.diagrams.net" modified="2020-04-23T06:33:37.520Z" agent="5.0 (Macintosh; Intel Mac OS X 10_14_6) AppleWebKit/537.36 (KHTML, like Gecko) Chrome/81.0.4044.113 Safari/537.36" etag="ioA6FVD9J2LscxCUrYLb" version="13.0.1" type="github" pages="5">
  <diagram id="bW57GUwkP55EJ2sGAM-z" name="技术堆栈">
    <mxGraphModel dx="946" dy="579" grid="1" gridSize="10" guides="1" tooltips="1" connect="1" arrows="1" fold="1" page="1" pageScale="1" pageWidth="827" pageHeight="1169" math="0" shadow="0">
      <root>
        <mxCell id="0" />
        <mxCell id="1" parent="0" />
        <mxCell id="sbl3rChW2QwzPSGXJ5mn-1" value="" style="rounded=0;whiteSpace=wrap;html=1;fillColor=#00CC66;strokeColor=none;" parent="1" vertex="1">
          <mxGeometry y="120" width="800" height="320" as="geometry" />
        </mxCell>
        <mxCell id="sbl3rChW2QwzPSGXJ5mn-2" value="&lt;font color=&quot;#ffffff&quot;&gt;Android技术堆栈&lt;/font&gt;" style="text;html=1;strokeColor=none;fillColor=none;align=center;verticalAlign=middle;whiteSpace=wrap;rounded=0;fontStyle=1;fontFamily=Comic Sans MS;fontColor=#CC6600;fontSize=46;" parent="1" vertex="1">
          <mxGeometry x="10" y="270" width="780" height="20" as="geometry" />
        </mxCell>
      </root>
    </mxGraphModel>
  </diagram>
  <diagram id="8GqnMZJ4Uofj3jaBf5WY" name="aidl">
    
    <mxGraphModel dx="946" dy="531" grid="1" gridSize="10" guides="1" tooltips="1" connect="1" arrows="1" fold="1" page="1" pageScale="1" pageWidth="827" pageHeight="1169" math="0" shadow="0">
      
      <root>
        
        <mxCell id="sG4b8_S-WNLmJSJId91Q-0" />
        
        <mxCell id="sG4b8_S-WNLmJSJId91Q-1" parent="sG4b8_S-WNLmJSJId91Q-0" />
        
        <mxCell id="sG4b8_S-WNLmJSJId91Q-2" value="" style="rounded=0;whiteSpace=wrap;html=1;fillColor=#00CC66;strokeColor=none;" vertex="1" parent="sG4b8_S-WNLmJSJId91Q-1">
          
          <mxGeometry y="120" width="800" height="320" as="geometry" />
          
        </mxCell>
        
        <mxCell id="sG4b8_S-WNLmJSJId91Q-3" value="&lt;font color=&quot;#ffffff&quot;&gt;AIDL跨进程流程详解&lt;/font&gt;" style="text;html=1;strokeColor=none;fillColor=none;align=center;verticalAlign=middle;whiteSpace=wrap;rounded=0;fontStyle=1;fontFamily=Comic Sans MS;fontColor=#CC6600;fontSize=46;" vertex="1" parent="sG4b8_S-WNLmJSJId91Q-1">
          
          <mxGeometry x="10" y="270" width="780" height="20" as="geometry" />
          
        </mxCell>
        
        <mxCell id="W3mHG6dA84y1yrQcxMTU-0" value="公众号：Android技术堆栈" style="text;html=1;strokeColor=none;fillColor=none;align=center;verticalAlign=middle;whiteSpace=wrap;rounded=0;fontFamily=Comic Sans MS;fontSize=20;fontColor=#FFFFFF;" vertex="1" parent="sG4b8_S-WNLmJSJId91Q-1">
          
          <mxGeometry x="280" y="340" width="240" height="20" as="geometry" />
          
        </mxCell>
        
      </root>
      
    </mxGraphModel>
    
  </diagram>
  <diagram id="kbN3nWQR6Z6S8XY8t4fO" name="Page-3">
    <mxGraphModel dx="946" dy="579" grid="1" gridSize="10" guides="1" tooltips="1" connect="1" arrows="1" fold="1" page="1" pageScale="1" pageWidth="827" pageHeight="1169" math="0" shadow="0">
      <root>
        <mxCell id="tKqWqJurKter6Mev9x2g-0" />
        <mxCell id="tKqWqJurKter6Mev9x2g-1" parent="tKqWqJurKter6Mev9x2g-0" />
        <mxCell id="SK2S5GTYMlEIV2687bgu-0" value="" style="rounded=0;whiteSpace=wrap;html=1;fillColor=#00CC66;strokeColor=none;" parent="tKqWqJurKter6Mev9x2g-1" vertex="1">
          <mxGeometry y="120" width="800" height="320" as="geometry" />
        </mxCell>
        <mxCell id="SK2S5GTYMlEIV2687bgu-1" value="&lt;font color=&quot;#ffffff&quot;&gt;Dalvik Executable&lt;/font&gt;" style="text;html=1;strokeColor=none;fillColor=none;align=center;verticalAlign=middle;whiteSpace=wrap;rounded=0;fontStyle=1;fontFamily=Comic Sans MS;fontColor=#CC6600;fontSize=46;" parent="tKqWqJurKter6Mev9x2g-1" vertex="1">
          <mxGeometry x="10" y="270" width="780" height="20" as="geometry" />
        </mxCell>
        <mxCell id="SK2S5GTYMlEIV2687bgu-2" value="公众号：Android技术堆栈" style="text;html=1;strokeColor=none;fillColor=none;align=center;verticalAlign=middle;whiteSpace=wrap;rounded=0;fontFamily=Comic Sans MS;fontSize=20;fontColor=#FFFFFF;" parent="tKqWqJurKter6Mev9x2g-1" vertex="1">
          <mxGeometry x="280" y="340" width="240" height="20" as="geometry" />
        </mxCell>
      </root>
    </mxGraphModel>
  </diagram>
  <diagram id="b11ms4ZfyFKS25d3NBe_" name="Android系统启动">
    <mxGraphModel dx="946" dy="579" grid="1" gridSize="10" guides="1" tooltips="1" connect="1" arrows="1" fold="1" page="1" pageScale="1" pageWidth="827" pageHeight="1169" math="0" shadow="0">
      <root>
        <mxCell id="YdXnssIZT1luNwHIXwpb-0" />
        <mxCell id="YdXnssIZT1luNwHIXwpb-1" parent="YdXnssIZT1luNwHIXwpb-0" />
        <mxCell id="YPCfiW10JuNSRPK86iQe-0" value="" style="group" vertex="1" connectable="0" parent="YdXnssIZT1luNwHIXwpb-1">
          <mxGeometry y="120" width="800" height="320" as="geometry" />
        </mxCell>
        <mxCell id="LlHJx-iF3yQNdEPNa2aB-0" value="" style="group" vertex="1" connectable="0" parent="YPCfiW10JuNSRPK86iQe-0">
          <mxGeometry width="800" height="320" as="geometry" />
        </mxCell>
        <mxCell id="YdXnssIZT1luNwHIXwpb-2" value="" style="rounded=0;whiteSpace=wrap;html=1;fillColor=#00CC66;strokeColor=none;" parent="LlHJx-iF3yQNdEPNa2aB-0" vertex="1">
          <mxGeometry width="800" height="320" as="geometry" />
        </mxCell>
        <mxCell id="YdXnssIZT1luNwHIXwpb-3" value="&lt;font color=&quot;#ffffff&quot;&gt;Android操作系统启动过程&lt;/font&gt;" style="text;html=1;strokeColor=none;fillColor=none;align=center;verticalAlign=middle;whiteSpace=wrap;rounded=0;fontStyle=1;fontFamily=Comic Sans MS;fontColor=#CC6600;fontSize=46;" parent="LlHJx-iF3yQNdEPNa2aB-0" vertex="1">
          <mxGeometry x="10" y="150" width="780" height="20" as="geometry" />
        </mxCell>
        <mxCell id="YdXnssIZT1luNwHIXwpb-4" value="公众号：Android技术堆栈" style="text;html=1;strokeColor=none;fillColor=none;align=center;verticalAlign=middle;whiteSpace=wrap;rounded=0;fontFamily=Comic Sans MS;fontSize=20;fontColor=#FFFFFF;" parent="LlHJx-iF3yQNdEPNa2aB-0" vertex="1">
          <mxGeometry x="280" y="220" width="240" height="20" as="geometry" />
        </mxCell>
      </root>
    </mxGraphModel>
  </diagram>
  <diagram id="yzXf-7UfJyuYoItSpcmr" name="Page-5">
    <mxGraphModel dx="946" dy="579" grid="1" gridSize="10" guides="1" tooltips="1" connect="1" arrows="1" fold="1" page="1" pageScale="1" pageWidth="827" pageHeight="1169" math="0" shadow="0">
      <root>
        <mxCell id="E7C3QLUOTBv6KH0Hw6jW-0" />
        <mxCell id="E7C3QLUOTBv6KH0Hw6jW-1" parent="E7C3QLUOTBv6KH0Hw6jW-0" />
        <mxCell id="cKwrgdaaJclD9Uzs31IE-0" value="" style="group" vertex="1" connectable="0" parent="E7C3QLUOTBv6KH0Hw6jW-1">
          <mxGeometry y="120" width="800" height="320" as="geometry" />
        </mxCell>
        <mxCell id="cKwrgdaaJclD9Uzs31IE-1" value="" style="group" vertex="1" connectable="0" parent="cKwrgdaaJclD9Uzs31IE-0">
          <mxGeometry width="800" height="320" as="geometry" />
        </mxCell>
        <mxCell id="cKwrgdaaJclD9Uzs31IE-2" value="" style="rounded=0;whiteSpace=wrap;html=1;fillColor=#00CC66;strokeColor=none;" vertex="1" parent="cKwrgdaaJclD9Uzs31IE-1">
          <mxGeometry width="800" height="320" as="geometry" />
        </mxCell>
        <mxCell id="cKwrgdaaJclD9Uzs31IE-3" value="&lt;font color=&quot;#ffffff&quot;&gt;LayoutInflater源码解析&lt;/font&gt;" style="text;html=1;strokeColor=none;fillColor=none;align=center;verticalAlign=middle;whiteSpace=wrap;rounded=0;fontStyle=1;fontFamily=Comic Sans MS;fontColor=#CC6600;fontSize=46;" vertex="1" parent="cKwrgdaaJclD9Uzs31IE-1">
          <mxGeometry x="10" y="150" width="780" height="20" as="geometry" />
        </mxCell>
        <mxCell id="cKwrgdaaJclD9Uzs31IE-4" value="公众号：Android技术堆栈" style="text;html=1;strokeColor=none;fillColor=none;align=center;verticalAlign=middle;whiteSpace=wrap;rounded=0;fontFamily=Comic Sans MS;fontSize=20;fontColor=#FFFFFF;" vertex="1" parent="cKwrgdaaJclD9Uzs31IE-1">
          <mxGeometry x="280" y="220" width="240" height="20" as="geometry" />
        </mxCell>
      </root>
    </mxGraphModel>
  </diagram>
</mxfile>
